<?xml version="1.0" standalone="no"?>
<!DOCTYPE svg PUBLIC "-//W3C//DTD SVG 20010904//EN"
 "http://www.w3.org/TR/2001/REC-SVG-20010904/DTD/svg10.dtd">
<svg version="1.0" xmlns="http://www.w3.org/2000/svg"
 width="225.000000pt" height="225.000000pt" viewBox="0 0 225.000000 225.000000"
 preserveAspectRatio="xMidYMid meet">

<g transform="translate(0.000000,225.000000) scale(0.100000,-0.100000)"
fill="#000000" stroke="none">
<path d="M0 1125 l0 -1125 1125 0 1125 0 0 1125 0 1125 -1125 0 -1125 0 0
-1125z m1683 348 c23 -16 42 -34 42 -39 0 -17 -76 -78 -83 -67 -20 31 -106 45
-130 21 -16 -16 -15 -63 1 -75 6 -6 43 -20 80 -33 78 -25 131 -70 141 -120 8
-42 -10 -108 -37 -139 -73 -80 -232 -82 -318 -4 l-40 36 42 37 43 37 20 -24
c40 -46 147 -48 161 -3 10 32 -12 58 -67 76 -128 41 -168 81 -168 167 0 53 16
91 52 123 36 33 77 44 151 40 56 -3 76 -9 110 -33z m-1233 -78 l0 -105 100 0
100 0 0 105 0 105 60 0 60 0 0 -265 0 -265 -60 0 -60 0 0 110 0 110 -100 0
-100 0 0 -110 0 -110 -65 0 -65 0 0 265 0 265 65 0 65 0 0 -105z m736 78 c85
-45 118 -112 118 -238 0 -97 -15 -145 -61 -196 -49 -54 -106 -69 -260 -69
l-123 0 0 266 0 266 143 -4 c122 -3 148 -6 183 -25z m744 -238 l0 -265 -65 0
-65 0 0 265 0 265 65 0 65 0 0 -265z m-1560 -384 c0 -47 4 -71 13 -74 29 -10
37 6 37 74 0 68 0 69 26 69 l26 0 -4 -76 c-4 -85 -17 -104 -72 -104 -57 0 -76
31 -76 119 0 58 1 61 25 61 24 0 25 -2 25 -69z m245 56 c28 -21 10 -39 -32
-31 -40 7 -53 -4 -53 -48 0 -36 26 -61 50 -48 19 10 50 4 50 -11 0 -14 -36
-29 -69 -29 -47 0 -71 30 -71 90 0 37 5 55 20 70 23 23 77 27 105 7z m179 7
c19 -7 21 -34 4 -35 -7 -1 -23 0 -35 1 -36 2 -27 -24 11 -38 42 -15 54 -44 32
-77 -13 -19 -25 -25 -55 -25 -42 0 -72 23 -54 41 8 8 17 7 32 -1 22 -11 41 -6
41 10 0 6 -16 16 -35 24 -86 36 -29 134 59 100z m164 -84 l31 -90 -24 0 c-14
0 -25 7 -28 20 -3 14 -14 20 -32 20 -18 0 -29 -6 -32 -20 -3 -13 -14 -20 -29
-20 -13 0 -24 1 -24 3 0 3 44 136 55 165 2 6 15 12 29 12 22 0 27 -9 54 -90z
m115 40 c16 -28 29 -50 30 -50 1 0 2 21 2 47 0 42 3 48 23 51 21 3 22 1 22
-87 0 -89 -1 -91 -23 -91 -18 0 -31 12 -53 53 l-29 52 -3 -52 c-3 -45 -6 -53
-23 -53 -17 0 -19 7 -19 90 0 87 1 90 23 90 16 0 29 -13 50 -50z m271 29 c22
-17 26 -28 26 -69 0 -64 -30 -90 -101 -90 l-49 0 0 90 0 90 49 0 c34 0 56 -6
75 -21z m96 -69 c0 -83 -1 -90 -20 -90 -19 0 -20 7 -20 90 0 83 1 90 20 90 19
0 20 -7 20 -90z m150 70 c0 -17 -7 -20 -40 -20 -29 0 -40 -4 -40 -15 0 -10 11
-15 35 -15 28 0 35 -4 35 -20 0 -16 -7 -20 -35 -20 -24 0 -35 -5 -35 -15 0
-11 11 -15 40 -15 33 0 40 -3 40 -20 0 -18 -7 -20 -60 -20 l-60 0 0 90 0 90
60 0 c53 0 60 -2 60 -20z m145 4 c21 -22 13 -28 -38 -29 -42 0 -42 0 -45 -40
-4 -42 17 -69 44 -58 19 7 18 23 -1 23 -8 0 -15 9 -15 20 0 17 7 20 40 20 35
0 40 -3 40 -24 0 -13 -9 -35 -21 -50 -16 -20 -29 -26 -59 -26 -30 0 -43 6 -59
26 -30 38 -28 98 4 129 28 29 85 34 110 9z m171 -5 c13 -15 19 -36 19 -69 0
-62 -23 -90 -76 -90 -48 0 -79 36 -79 90 0 54 31 90 79 90 26 0 44 -7 57 -21z"/>
<path d="M990 1236 l0 -166 46 0 c111 0 157 68 139 206 -10 83 -42 114 -123
121 l-62 6 0 -167z"/>
<path d="M896 848 c-9 -34 -8 -38 9 -38 12 0 14 7 9 28 -9 36 -10 37 -18 10z"/>
<path d="M1270 830 c0 -46 2 -50 24 -50 25 0 36 16 36 54 0 27 -18 46 -42 46
-15 0 -18 -9 -18 -50z"/>
<path d="M1827 874 c-13 -13 -7 -81 8 -94 25 -21 47 6 43 54 -2 32 -7 42 -23
44 -12 2 -24 0 -28 -4z"/>
</g>
</svg>
