<?xml version="1.0" standalone="no"?>
<!DOCTYPE svg PUBLIC "-//W3C//DTD SVG 20010904//EN"
 "http://www.w3.org/TR/2001/REC-SVG-20010904/DTD/svg10.dtd">
<svg version="1.0" xmlns="http://www.w3.org/2000/svg"
 width="500.000000pt" height="500.000000pt" viewBox="0 0 500.000000 500.000000"
 preserveAspectRatio="xMidYMid meet">

<g transform="translate(0.000000,500.000000) scale(0.100000,-0.100000)"
fill="#000000" stroke="none">
<path d="M2335 4589 c-412 -38 -812 -199 -1131 -454 -245 -197 -436 -436 -574
-720 -151 -308 -214 -587 -213 -935 1 -337 66 -614 213 -915 114 -233 237
-402 428 -587 332 -322 746 -520 1207 -578 116 -15 394 -15 510 0 391 49 768
209 1075 457 89 72 267 254 331 338 245 321 391 687 435 1090 11 101 8 355 -5
460 -47 367 -189 719 -408 1013 -80 107 -259 290 -374 382 -286 229 -640 381
-1009 434 -137 20 -360 27 -485 15z m59 -123 c-3 -9 4 -11 23 -9 37 6 86 -31
63 -47 -8 -5 -26 -10 -39 -10 -23 0 -24 1 -6 20 18 19 17 20 -2 20 -12 0 -23
-8 -26 -20 -6 -22 13 -36 74 -54 20 -6 36 -15 35 -21 -2 -16 -57 -18 -74 -2
-28 24 -58 29 -72 12 -12 -14 -10 -15 12 -10 45 11 65 -8 66 -62 1 -25 -3 -52
-9 -59 -7 -8 -3 -13 11 -17 12 -3 20 -13 20 -25 0 -32 -12 -32 -50 -1 -29 25
-32 31 -20 39 9 6 10 10 3 10 -7 0 -27 -18 -44 -40 -23 -29 -40 -40 -58 -40
l-26 1 33 26 c27 21 30 28 18 37 -9 6 -16 32 -17 63 -2 45 1 55 30 88 18 20
30 39 27 42 -8 8 -37 -5 -34 -15 6 -17 -61 -82 -77 -76 -23 9 -18 22 20 46 41
27 43 36 10 44 -15 4 -25 13 -25 24 0 28 15 32 35 10 25 -28 32 -25 55 21 17
32 24 38 35 29 8 -6 12 -17 9 -24z m325 -48 c1 -22 -22 -23 -39 -3 -10 13 -9
19 6 36 17 19 19 19 25 2 4 -10 8 -26 8 -35z m166 -20 c30 -14 31 -20 6 -42
-11 -10 -25 -41 -31 -68 -9 -43 -8 -55 6 -76 13 -19 18 -22 25 -11 5 8 9 26 9
41 0 15 4 29 9 32 10 7 21 -41 21 -95 0 -49 -16 -51 -64 -5 -31 29 -36 40 -37
82 0 27 -3 43 -6 37 -2 -7 -11 -13 -18 -13 -15 0 -25 -31 -25 -77 0 -34 -8
-41 -27 -22 -7 7 -8 23 -2 47 11 50 11 52 -6 52 -22 0 -18 27 5 33 14 3 20 14
20 32 0 25 -2 26 -37 21 -89 -13 -118 -12 -121 7 -3 15 5 17 60 18 35 0 83 4
108 8 66 12 77 12 105 -1z m-1018 -61 c14 -19 26 -23 53 -19 27 3 40 -2 54
-17 18 -20 18 -21 -10 -31 -16 -6 -31 -15 -34 -19 -6 -9 -66 -51 -73 -51 -3 0
-7 6 -10 14 -4 10 9 24 39 41 48 28 60 51 18 35 -43 -17 -73 -44 -74 -67 0
-13 -5 -23 -11 -23 -8 0 -8 -5 1 -15 11 -13 21 -10 77 21 45 25 68 33 75 26
13 -13 2 -32 -19 -32 -12 0 -14 -6 -8 -27 9 -38 19 -46 45 -38 18 6 21 13 18
36 -6 37 5 37 31 0 27 -37 27 -38 -10 -56 -46 -24 -81 -16 -101 23 -21 43 -30
52 -28 27 6 -57 -1 -85 -25 -101 -35 -23 -38 -15 -15 31 11 22 20 44 20 50 0
6 -24 10 -55 10 -30 0 -55 0 -55 -1 0 0 9 -27 20 -59 23 -68 24 -75 8 -75 -10
0 -53 102 -95 225 -3 11 51 45 73 45 12 0 13 -8 8 -35 -4 -23 -2 -35 5 -35 6
0 11 4 11 10 0 5 15 24 33 42 17 18 30 32 28 31 -9 -6 -31 21 -31 38 0 26 15
24 37 -4z m863 3 c0 -5 -6 -10 -14 -10 -7 0 -28 -3 -45 -6 -24 -5 -31 -3 -31
10 0 12 10 16 45 16 25 0 45 -4 45 -10z m440 6 c0 -2 2 -11 5 -18 4 -11 -3
-13 -32 -10 -24 2 -33 0 -25 -6 7 -5 10 -16 6 -27 -6 -15 -3 -17 20 -13 22 4
29 0 41 -23 27 -51 15 -64 -23 -28 -13 11 -31 19 -42 17 -32 -5 -1 -34 45 -42
38 -7 41 -5 51 22 10 27 9 31 -12 41 -27 12 -30 29 -10 56 13 19 15 18 28 -15
l15 -35 7 33 c5 22 13 32 27 32 25 0 24 -18 -5 -84 -13 -30 -22 -57 -18 -60 3
-3 18 -6 34 -6 24 0 28 -4 28 -26 0 -21 -3 -25 -17 -19 -10 5 -29 8 -43 9 -21
1 -27 -7 -44 -54 -23 -66 -22 -64 -41 -57 -13 6 -13 13 5 59 11 29 20 58 20
64 0 6 -21 14 -46 17 -26 2 -49 10 -53 15 -4 6 -15 -11 -24 -39 -11 -29 -23
-48 -30 -46 -15 5 -13 22 7 69 l16 38 -34 -17 c-19 -9 -42 -13 -52 -9 -15 6
-10 12 30 34 40 22 45 28 28 30 -15 2 -22 11 -22 24 0 18 4 20 40 14 33 -5 40
-3 40 10 0 9 -10 18 -21 21 -21 6 -21 6 2 19 22 12 99 20 99 10z m-450 -41 c0
-10 -11 -15 -35 -15 -19 0 -38 0 -42 -1 -4 0 -9 4 -11 10 -2 5 14 12 35 14 21
2 41 4 46 5 4 1 7 -5 7 -13z m3 -38 c10 -27 -20 -61 -55 -63 -37 -2 -48 9 -48
47 0 24 3 26 49 28 32 1 50 -3 54 -12z m803 -71 c7 -1 20 -8 30 -16 9 -8 25
-14 36 -12 19 3 25 -13 8 -23 -17 -10 -11 -32 10 -38 11 -3 20 -1 20 4 0 5 -7
9 -15 9 -8 0 -15 5 -15 10 0 15 22 12 48 -6 30 -21 28 -35 -13 -63 -39 -26
-42 -33 -20 -51 17 -14 20 -56 4 -65 -13 -8 -61 34 -53 47 3 4 10 6 15 3 5 -4
9 -1 9 5 0 14 -52 45 -123 72 -31 13 -55 27 -53 33 2 5 8 9 15 8 6 -2 20 20
32 48 17 38 26 48 38 44 9 -4 21 -8 27 -9z m-2081 -38 c31 -14 28 -33 -6 -33
-17 0 -25 6 -27 23 -4 25 -2 26 33 10z m135 -3 c35 -18 38 -31 10 -40 -11 -3
-25 -18 -32 -33 -17 -35 -53 -41 -68 -12 -7 14 -15 19 -21 13 -16 -16 1 -43
26 -43 13 0 25 -6 27 -12 3 -9 9 -8 22 5 22 21 48 23 40 2 -8 -19 13 -72 31
-79 8 -3 24 3 36 13 21 17 21 18 5 50 -10 18 -16 35 -13 37 2 2 24 -13 48 -34
l43 -39 -44 -32 c-55 -40 -87 -38 -115 6 -11 18 -24 31 -30 29 -12 -3 -12 -51
-2 -83 6 -17 1 -29 -23 -55 -30 -31 -31 -32 -25 -8 3 14 9 45 11 70 l5 45 -21
-24 c-16 -18 -24 -21 -32 -13 -9 9 -5 19 17 42 23 24 26 33 16 43 -10 9 -14 8
-22 -5 -16 -29 -29 -21 -29 18 0 32 -1 34 -16 20 -9 -10 -13 -24 -9 -36 4 -14
1 -22 -10 -26 -25 -10 -29 3 -15 45 14 43 76 110 125 135 36 19 30 19 65 1z
m1810 -65 c-9 -17 -14 -19 -26 -9 -20 17 -17 27 9 31 29 5 31 3 17 -22z m-555
-40 c319 -68 574 -207 805 -439 261 -261 408 -556 455 -908 116 -868 -492
-1667 -1362 -1789 -141 -20 -372 -15 -503 11 -208 41 -433 135 -612 256 -134
92 -326 286 -416 422 -120 181 -197 363 -244 580 -19 87 -22 133 -22 307 0
175 3 220 23 310 70 330 219 600 457 831 247 238 527 378 873 434 127 21 415
13 546 -15z m702 -21 c7 -6 13 -19 13 -29 0 -13 -7 -16 -27 -13 -22 3 -19 -1
15 -16 38 -18 54 -43 34 -55 -4 -2 -25 6 -46 19 l-38 23 -30 -34 c-17 -19 -33
-34 -37 -34 -12 0 -46 68 -39 76 4 3 14 -1 24 -10 12 -13 19 -14 30 -5 22 18
17 26 -26 43 -22 9 -40 23 -40 31 0 18 14 19 43 3 28 -14 85 -19 93 -7 3 5
-10 9 -29 9 -38 0 -48 6 -41 25 5 11 13 11 46 -1 23 -8 47 -19 55 -25z m-2294
-96 c-1 -11 6 -28 17 -38 17 -16 19 -16 30 4 9 18 14 19 32 10 l20 -11 -21
-21 -21 -21 52 -53 c39 -40 49 -56 41 -64 -9 -9 -25 0 -64 35 -28 25 -55 46
-59 46 -17 0 -17 -28 0 -63 12 -25 16 -46 11 -64 -11 -43 -31 -40 -31 4 0 47
-14 73 -31 56 -8 -8 -8 -16 0 -31 8 -16 7 -27 -7 -51 -9 -17 -23 -29 -29 -26
-7 3 -19 8 -27 11 -8 3 -16 -4 -21 -18 -6 -19 -9 -11 -19 37 -7 37 -14 55 -19
48 -10 -15 -17 -16 -35 -4 -11 6 -6 20 23 60 38 53 61 58 52 11 -3 -15 -4 -36
-1 -47 5 -19 9 -18 39 16 30 32 32 38 19 52 -8 9 -23 15 -33 12 -37 -9 -31 18
16 77 48 60 70 71 66 33z m2565 -10 c20 -15 39 -28 41 -30 2 -1 1 -9 -3 -18
-4 -12 -10 -14 -26 -5 -11 6 -31 8 -45 4 l-26 -6 38 -33 c34 -30 40 -32 54
-18 9 8 15 22 12 32 -9 36 15 30 75 -17 62 -47 72 -67 35 -67 -11 0 -27 -6
-37 -14 -15 -13 -15 -15 0 -32 10 -11 14 -25 10 -35 -6 -16 -9 -16 -29 4 l-21
22 -53 -52 c-40 -39 -56 -49 -64 -41 -9 9 0 25 35 64 36 40 44 54 35 65 -6 8
-14 12 -18 10 -51 -28 -80 -36 -104 -27 -39 15 -33 31 11 31 46 0 72 14 55 31
-8 8 -16 8 -32 -1 -17 -9 -27 -7 -51 7 -33 19 -35 25 -20 54 9 16 7 19 -10 19
-11 0 -20 5 -20 10 0 6 11 10 24 10 13 0 38 3 55 6 25 5 29 9 20 20 -11 14 -4
34 12 34 6 0 27 -12 47 -27z m250 -309 c20 -8 50 -27 66 -42 18 -17 27 -21 23
-11 -7 20 10 39 35 39 21 0 21 -1 6 -35 -6 -14 -18 -25 -25 -25 -11 0 -9 -7 6
-26 25 -31 27 -71 5 -99 -15 -20 -15 -20 -30 -1 -8 11 -14 22 -14 26 0 3 -10
10 -22 15 -31 14 -35 50 -8 65 14 7 19 15 13 21 -14 14 -43 0 -43 -22 0 -10
-7 -22 -15 -27 -14 -7 -13 -11 5 -27 24 -22 27 -50 4 -41 -20 8 -84 -20 -84
-37 0 -7 6 -22 14 -32 14 -19 15 -19 51 -2 21 10 39 16 41 14 2 -2 -13 -23
-33 -47 l-37 -43 -33 38 c-41 47 -43 86 -7 114 14 11 30 22 37 24 9 3 9 8 1
16 -8 9 -23 9 -58 1 -52 -12 -78 -3 -97 32 -10 19 -9 20 12 14 13 -4 44 -10
69 -13 l45 -6 -25 21 c-20 16 -23 23 -13 33 10 10 19 7 42 -15 37 -36 63 -25
29 11 l-23 26 29 -6 c42 -7 60 1 41 19 -9 9 -23 12 -40 8 -21 -5 -25 -3 -25
15 0 25 9 26 58 5z m-3063 -51 l18 -27 15 22 c13 19 52 32 52 16 0 -3 -16 -33
-36 -67 l-36 -61 21 -39 c23 -42 27 -87 11 -118 -16 -28 -30 -23 -24 9 3 16 0
48 -6 73 l-12 44 -21 -42 c-13 -27 -28 -43 -39 -43 -17 0 -17 2 -4 29 15 28
15 29 -12 34 -37 8 -71 34 -55 44 6 5 14 20 18 35 5 21 3 27 -13 32 -33 11
-47 33 -32 51 11 13 15 13 38 -4 26 -19 26 -19 53 10 33 36 42 36 64 2z m165
-78 c14 -17 14 -16 -62 -34 -87 -20 -100 -8 -30 29 45 23 75 25 92 5z m3124
-220 c3 -9 19 -21 36 -26 18 -7 30 -18 30 -28 0 -32 -13 -32 -47 1 -40 38 -50
33 -27 -16 15 -29 21 -35 41 -30 15 4 23 2 23 -6 0 -7 12 -29 26 -47 19 -25
23 -38 15 -46 -7 -7 -20 -1 -44 25 -21 23 -38 33 -49 29 -15 -5 -13 -12 13
-54 24 -39 28 -52 18 -63 -17 -21 -28 -17 -35 11 -3 14 -7 25 -8 25 -2 0 -36
-11 -76 -25 -85 -29 -90 -30 -90 -11 0 7 31 26 70 42 73 30 75 31 62 52 -7 10
-15 10 -37 2 -33 -12 -56 -7 -80 20 -17 19 -17 19 31 14 27 -3 63 -1 79 5 l30
9 -28 1 c-20 1 -33 10 -48 35 -16 27 -25 33 -47 30 -31 -4 -72 14 -72 32 0 9
10 10 37 3 39 -8 96 0 129 19 26 16 41 15 48 -3z m-3454 -30 c32 -33 33 -37
22 -68 -7 -18 -12 -36 -12 -40 0 -3 27 -16 60 -28 54 -19 71 -35 54 -51 -3 -3
-27 3 -55 13 -65 25 -69 24 -69 -10 0 -27 -3 -30 -44 -36 -24 -4 -53 -4 -65 0
-19 6 -20 12 -15 59 l6 52 -42 16 c-37 15 -40 19 -30 37 13 25 18 25 44 6 29
-22 43 -18 51 13 9 36 33 72 48 72 7 0 28 -16 47 -35z m3563 -1082 l38 -6 -6
-41 c-9 -56 -27 -73 -60 -58 -20 9 -25 19 -25 47 0 23 -4 34 -10 30 -6 -4 -10
-14 -9 -23 4 -45 -12 -57 -30 -23 -7 13 -7 29 0 50 12 33 26 37 102 24z
m-3595 -25 c2 -12 -14 -20 -70 -32 -40 -9 -80 -19 -89 -22 -11 -3 -18 3 -22
15 -4 18 5 22 77 40 90 22 100 21 104 -1z m-37 -58 c1 -5 2 -14 3 -19 0 -5 4
-13 9 -17 4 -4 7 -18 7 -31 0 -18 -9 -28 -33 -38 -50 -21 -91 -23 -95 -4 -2
11 11 20 44 30 72 22 46 43 -36 28 -17 -3 -26 1 -28 12 -2 11 12 20 45 31 57
19 83 22 84 8z m3559 -35 c0 -7 -7 -18 -17 -23 -26 -15 -8 -42 27 -42 30 0 31
2 25 29 -8 38 10 48 30 17 14 -21 15 -29 3 -53 -19 -40 -77 -45 -113 -8 -26
26 -27 52 -3 83 14 17 48 15 48 -3z m-3514 -110 c10 -16 14 -34 10 -50 -4 -14
-3 -24 1 -23 16 4 73 -12 73 -21 0 -5 -9 -11 -21 -14 -12 -3 -18 -10 -14 -16
3 -6 -2 -14 -11 -18 -10 -4 -19 -2 -22 5 -5 15 -40 -2 -64 -32 -13 -16 -20
-18 -28 -10 -20 20 -6 48 33 67 38 17 46 30 26 43 -6 3 -9 14 -6 24 2 10 1 24
-4 31 -6 9 -9 -1 -9 -28 0 -54 -27 -74 -66 -48 -21 13 -25 23 -22 53 4 44 33
53 33 10 0 -14 3 -30 8 -34 4 -4 7 8 7 27 0 60 46 80 76 34z m3418 17 c9 -14
-10 -33 -27 -26 -18 6 -21 16 -10 27 9 9 31 9 37 -1z m136 -64 c0 -12 -5 -18
-12 -16 -7 3 -37 13 -65 22 -48 16 -64 32 -47 48 3 4 32 -3 65 -14 46 -15 59
-24 59 -40z m-60 -24 c37 -15 49 -32 34 -47 -4 -3 -22 0 -41 8 -45 19 -63 19
-63 0 0 -8 18 -22 40 -31 37 -15 49 -32 34 -46 -6 -7 -102 29 -118 44 -6 5 -5
13 2 20 7 7 12 22 12 33 0 12 3 25 7 28 11 12 51 8 93 -9z m-3382 -77 c2 -12
-3 -17 -17 -17 -12 0 -21 6 -21 13 0 31 32 34 38 4z m-44 -12 c4 -11 -11 -23
-53 -45 -52 -26 -61 -27 -71 -14 -16 18 -17 17 50 47 67 31 66 31 74 12z
m3279 9 c9 -10 -4 -34 -18 -34 -17 0 -28 17 -20 30 7 11 28 13 38 4z m82 -41
c56 -28 66 -39 41 -49 -20 -8 -116 43 -116 61 0 21 12 19 75 -12z m-3298 -7
c5 -4 0 -12 -10 -17 -9 -6 -17 -16 -17 -23 0 -8 -7 -16 -15 -20 -8 -3 -15 -1
-15 5 0 5 -13 3 -30 -6 -16 -9 -30 -22 -30 -31 0 -24 -35 -12 -38 14 -3 16 5
27 29 40 17 9 38 24 46 33 15 16 66 19 80 5z m3213 -13 c0 -14 -15 -29 -32
-36 -10 -3 -18 -13 -18 -22 0 -21 7 -19 42 10 36 30 61 32 88 5 26 -26 25 -51
-1 -84 -25 -31 -83 -38 -77 -8 2 9 14 18 26 20 27 4 40 28 23 45 -8 8 -18 4
-39 -16 -66 -63 -143 3 -80 70 20 21 68 32 68 16z m-3220 -68 c0 -8 -18 -24
-40 -36 -22 -13 -40 -26 -40 -31 0 -20 32 -18 65 2 25 16 40 19 47 12 15 -15
4 -27 -48 -56 -57 -32 -62 -32 -74 -3 -6 12 -16 30 -22 39 -15 21 -1 38 59 73
40 23 53 23 53 0z m110 -96 c0 -4 -6 -12 -13 -16 -8 -4 -17 -16 -20 -26 -4
-10 -13 -17 -20 -14 -20 7 -67 -21 -61 -37 9 -23 -18 -31 -33 -11 -19 27 -17
32 25 62 21 16 39 33 39 38 3 21 83 25 83 4z m3069 -51 c47 -28 50 -33 36 -48
-8 -9 -15 -21 -15 -27 0 -20 -29 -35 -56 -29 -25 7 -26 10 -21 52 2 24 1 44
-4 44 -5 0 -9 -8 -9 -19 0 -10 -7 -24 -15 -31 -12 -10 -15 -7 -21 15 -5 20 -1
32 17 51 12 13 26 24 30 24 4 0 31 -14 58 -32z m-3054 -42 c20 -31 4 -70 -38
-91 -41 -20 -53 -19 -71 7 -23 32 -20 55 10 83 35 32 78 33 99 1z m2902 -2 c8
-20 -8 -36 -26 -25 -15 10 -8 41 9 41 6 0 13 -7 17 -16z m75 -54 c52 -38 52
-39 39 -59 -8 -12 -19 -7 -58 24 -26 21 -50 40 -52 41 -7 5 9 36 17 32 4 -2
29 -19 54 -38z m-29 -54 c25 -23 35 -39 31 -50 -9 -22 -16 -20 -49 14 -16 17
-35 30 -42 30 -24 0 -13 -28 23 -57 31 -25 34 -31 21 -41 -13 -11 -21 -8 -52
19 -26 23 -39 29 -47 21 -8 -8 0 -21 28 -46 29 -26 36 -38 27 -47 -14 -14 -37
-2 -81 43 l-32 34 36 39 c19 22 40 47 45 57 15 27 50 21 92 -16z m-2843 -24
c32 -26 30 -70 -4 -99 -33 -28 -60 -29 -86 -3 -27 27 -25 66 5 95 29 30 55 32
85 7z m130 -57 c16 -19 3 -37 -21 -30 -16 5 -20 3 -17 -12 2 -11 -3 -18 -14
-18 -9 0 -33 -16 -53 -35 -27 -26 -38 -31 -47 -22 -9 9 -4 20 22 47 19 20 35
44 35 53 0 10 7 16 17 14 9 -1 19 2 23 8 9 15 41 12 55 -5z m2576 -57 c3 -5
-7 -23 -22 -40 -25 -26 -26 -30 -9 -26 11 2 20 10 20 18 0 8 8 16 18 18 26 5
22 -43 -5 -62 -31 -22 -41 -20 -77 10 -58 48 -28 126 40 102 16 -5 32 -14 35
-20z m-2509 -37 c-6 -10 -33 -42 -60 -71 -39 -43 -50 -50 -62 -40 -12 10 -5
22 47 81 48 54 64 67 74 58 11 -9 11 -15 1 -28z m2417 -54 l38 -47 -28 -30
c-35 -37 -53 -38 -93 -4 -37 31 -42 75 -11 97 17 12 18 16 6 33 -11 14 -12 22
-3 33 9 11 15 9 32 -12 11 -13 37 -45 59 -70z m-2400 -2 c8 -8 19 -15 25 -15
15 0 33 -38 25 -53 -4 -6 -21 -29 -37 -49 -24 -29 -33 -35 -44 -27 -10 9 -7
19 17 52 21 29 27 44 19 51 -7 8 -20 0 -45 -26 -22 -24 -39 -35 -49 -31 -19 7
-19 6 25 65 39 53 42 54 64 33z m156 -50 c16 -20 5 -34 -23 -27 -19 5 -20 3
-9 -10 10 -12 10 -17 -1 -27 -8 -6 -17 -8 -20 -5 -3 3 -18 -12 -34 -35 -15
-22 -32 -40 -36 -41 -19 -1 -17 32 3 61 13 17 23 40 24 50 1 20 38 46 67 48 9
1 22 -6 29 -14z m2144 -39 l36 -44 -35 -27 c-39 -29 -62 -30 -79 -3 -8 13 -6
25 8 48 10 17 16 34 13 37 -3 2 -10 -5 -17 -16 -13 -25 -40 -28 -40 -4 0 24
30 53 55 53 15 0 36 -16 59 -44z m-130 -30 c25 -9 3 -36 -24 -29 -25 7 -28
-28 -4 -51 21 -22 34 -20 34 4 0 11 2 20 4 20 2 0 11 3 20 6 12 5 16 0 16 -17
0 -44 -39 -73 -77 -58 -22 8 -53 56 -53 83 0 15 48 58 59 52 3 -1 14 -6 25
-10z m-1975 -20 c27 -29 23 -64 -11 -96 -30 -28 -62 -25 -87 7 -24 30 -21 55
12 91 27 29 58 28 86 -2z m1866 -71 c57 -52 67 -66 55 -74 -10 -7 -19 -6 -31
5 -24 21 -67 0 -71 -35 -2 -14 -10 -27 -19 -29 -22 -4 -48 176 -28 189 21 13
20 14 94 -56z m-1715 -17 c0 -4 6 -5 14 -2 7 3 20 -1 28 -10 8 -8 25 -16 38
-18 39 -5 46 -30 23 -84 -11 -27 -27 -50 -36 -52 -21 -4 -22 23 -2 58 18 31
19 50 2 50 -7 0 -23 -20 -35 -45 -15 -31 -26 -43 -37 -39 -19 7 -19 3 4 55 11
24 17 47 15 51 -11 18 -26 6 -45 -37 -14 -31 -24 -42 -34 -39 -20 8 -19 17 5
64 25 48 25 45 -5 48 -20 1 -29 -6 -45 -38 -14 -27 -25 -38 -35 -34 -20 8 -20
12 16 77 l31 57 49 -27 c27 -16 49 -31 49 -35z m1480 -78 c28 -28 25 -46 -12
-59 -25 -9 -29 -14 -19 -24 10 -9 14 -8 22 6 11 19 39 23 39 5 0 -33 -56 -60
-86 -40 -34 22 -44 85 -17 114 21 24 48 23 73 -2z m-1269 0 c22 -12 24 -32 7
-95 -12 -44 -24 -54 -43 -36 -6 5 -21 11 -35 13 -17 2 -26 10 -28 26 -5 33 15
52 55 52 22 0 32 4 28 11 -4 6 -13 8 -21 5 -8 -3 -21 -3 -29 0 -12 5 -13 10
-4 20 14 17 43 18 70 4z m95 -7 c-4 -9 -2 -19 4 -23 6 -4 8 -14 4 -23 -3 -9
-10 -15 -14 -12 -4 3 -13 -10 -19 -27 -8 -22 -8 -34 -1 -36 18 -6 11 -32 -9
-32 -32 0 -44 24 -31 64 6 20 9 40 5 46 -9 15 27 59 49 60 13 0 16 -5 12 -17z
m58 11 c20 -8 9 -34 -15 -34 -21 0 -22 1 -13 24 7 18 7 18 28 10z m1005 -38
c15 -18 -1 -30 -28 -21 -24 7 -35 -9 -27 -41 7 -27 46 -35 46 -8 0 9 7 14 18
12 21 -5 18 -38 -6 -55 -29 -23 -61 -15 -82 20 -24 39 -25 56 -4 85 17 25 65
30 83 8z m-1013 -47 c-10 -63 -29 -100 -45 -90 -11 7 -11 18 -1 62 15 66 17
69 37 69 13 0 14 -8 9 -41z m642 24 c-5 -26 -38 -29 -38 -4 0 15 6 21 21 21
14 0 19 -5 17 -17z m578 -8 c7 -30 -2 -59 -16 -50 -6 4 -8 11 -4 16 3 6 -2 16
-12 23 -9 7 -14 18 -10 24 12 20 35 13 42 -13z m-759 -12 c14 -20 14 -23 -1
-29 -10 -4 -25 1 -36 11 -10 9 -24 14 -29 10 -20 -12 -12 -23 24 -35 81 -27
64 -120 -21 -120 -17 0 -64 44 -64 60 0 16 37 12 44 -6 3 -9 15 -14 28 -12 36
5 32 26 -8 43 -42 18 -54 30 -54 61 0 31 21 45 64 42 27 -2 43 -10 53 -25z
m433 1 c6 -14 13 -43 16 -66 6 -35 5 -40 -12 -36 -11 2 -21 15 -25 34 -11 57
-18 68 -33 55 -10 -9 -12 -21 -5 -52 10 -43 6 -59 -15 -59 -8 0 -18 23 -25 60
-13 63 -8 85 15 76 7 -3 16 -1 19 4 4 6 17 10 31 10 17 0 27 -8 34 -26z m-780
-4 c26 -26 25 -60 -1 -94 -25 -31 -61 -34 -89 -6 -26 26 -25 60 1 94 25 31 61
34 89 6z m141 -21 c5 -8 7 -30 4 -49 -2 -19 -5 -43 -5 -52 0 -11 -8 -18 -20
-18 -18 0 -20 6 -18 48 5 77 -24 70 -37 -10 -4 -27 -10 -36 -20 -31 -16 6 -19
35 -9 95 6 36 7 37 51 34 25 -1 49 -9 54 -17z m514 -9 c19 -37 19 -40 -2 -40
-15 0 -15 -1 2 -13 17 -13 17 -15 -3 -35 -28 -28 -47 -28 -77 3 -46 45 -27
115 30 115 28 0 37 -6 50 -30z m-194 10 c10 -6 19 -18 19 -26 0 -13 -7 -15
-35 -10 -34 7 -35 6 -35 -23 0 -36 16 -48 38 -28 17 14 42 13 42 -3 0 -18 -33
-40 -60 -40 -54 0 -81 79 -40 120 22 22 42 25 71 10z m73 -21 c11 -55 7 -96
-9 -103 -19 -7 -21 1 -29 77 -6 51 -4 57 13 57 13 0 20 -10 25 -31z"/>
<path d="M2394 4317 c4 -12 -1 -21 -17 -27 l-22 -9 23 0 c32 -1 27 -18 -9 -26
-40 -9 -32 -17 9 -9 26 5 32 11 32 33 0 14 -5 33 -11 41 -9 13 -10 12 -5 -3z"/>
<path d="M2348 4313 c6 -2 18 -2 25 0 6 3 1 5 -13 5 -14 0 -19 -2 -12 -5z"/>
<path d="M2806 4357 c-9 -36 -7 -45 12 -43 22 3 29 51 9 59 -10 4 -17 -2 -21
-16z"/>
<path d="M1741 4248 c-2 -30 18 -68 35 -68 16 0 16 1 1 18 -9 9 -20 29 -26 42
-6 17 -10 19 -10 8z"/>
<path d="M2663 4253 c-18 -7 -16 -23 2 -23 8 0 15 7 15 15 0 8 -1 15 -2 14 -2
0 -9 -3 -15 -6z"/>
<path d="M3515 4160 c27 -12 35 -12 35 0 0 6 -12 10 -27 9 -25 0 -26 -1 -8 -9z"/>
<path d="M3488 4133 c6 -2 18 -2 25 0 6 3 1 5 -13 5 -14 0 -19 -2 -12 -5z"/>
<path d="M3538 4123 c7 -3 16 -2 19 1 4 3 -2 6 -13 5 -11 0 -14 -3 -6 -6z"/>
<path d="M3465 4100 c3 -5 10 -10 16 -10 5 0 9 5 9 10 0 6 -7 10 -16 10 -8 0
-12 -4 -9 -10z"/>
<path d="M3561 4097 c-9 -11 -5 -14 20 -15 17 0 29 0 28 1 -2 2 -11 8 -20 15
-13 10 -19 10 -28 -1z"/>
<path d="M3500 4086 c0 -2 7 -6 15 -10 8 -3 15 -1 15 4 0 6 -7 10 -15 10 -8 0
-15 -2 -15 -4z"/>
<path d="M3555 4060 c3 -5 11 -10 16 -10 6 0 7 5 4 10 -3 6 -11 10 -16 10 -6
0 -7 -4 -4 -10z"/>
<path d="M1516 4127 c-11 -8 -15 -19 -10 -30 6 -17 8 -17 25 -1 19 17 26 44
11 44 -5 0 -16 -6 -26 -13z"/>
<path d="M2300 3447 c-107 -187 -194 -346 -194 -353 1 -8 -2 -11 -7 -9 -4 3
-15 -8 -24 -24 -18 -36 -19 -44 -2 -35 7 4 9 3 4 -2 -5 -5 -13 -9 -18 -9 -5 0
-26 -29 -46 -64 -20 -35 -31 -61 -24 -57 14 9 15 -18 1 -43 -7 -15 -4 -20 17
-30 14 -6 28 -10 30 -7 2 2 -5 7 -16 11 -12 3 -21 13 -21 21 0 19 10 18 26 -3
13 -17 15 -16 34 7 11 14 20 19 20 13 0 -10 47 -13 200 -13 l199 0 4 103 c3
94 3 92 3 -20 -1 -67 2 -119 7 -114 4 4 6 223 5 487 l-3 481 -195 -340z m-256
-482 c-8 -13 -12 -30 -8 -37 4 -7 4 -10 -1 -6 -4 4 -14 0 -22 -10 -17 -20 -14
-10 12 41 10 20 22 37 27 37 5 0 1 -11 -8 -25z"/>
<path d="M2674 3565 c-3 -8 -4 -20 -2 -27 3 -7 7 -1 10 15 6 29 1 36 -8 12z"/>
<path d="M2572 3198 c-2 -449 -11 -418 139 -502 55 -31 102 -56 104 -56 4 0
50 26 222 126 l91 54 -149 257 c-83 142 -155 257 -160 255 -6 -1 -8 2 -4 8 6
10 -94 193 -117 215 -6 6 -1 -8 12 -30 22 -37 22 -38 3 -22 -17 15 -22 15 -32
3 -8 -10 -9 -16 -1 -19 6 -3 5 -4 -2 -2 -7 1 -12 8 -10 15 3 13 -15 30 -30 30
-5 0 -9 -12 -9 -27 -2 -25 -2 -24 -9 7 -4 19 -8 29 -9 22 0 -7 -6 -10 -11 -7
-6 4 -10 3 -9 -2 1 -4 0 -42 -2 -83 l-3 -75 -6 100 c-4 58 -7 -53 -8 -267z
m199 217 c7 -13 3 -12 -10 5 -11 14 -21 30 -21 35 0 11 14 -7 31 -40z"/>
<path d="M1950 2840 c-8 -16 -6 -21 12 -30 20 -10 21 -9 6 2 -12 10 -13 19 -7
31 6 9 8 17 5 17 -3 0 -10 -9 -16 -20z"/>
<path d="M2061 2831 c-10 -6 -10 -10 -1 -16 13 -8 24 -1 19 14 -3 6 -10 7 -18
2z"/>
<path d="M2403 2824 c0 -10 4 -11 13 -3 10 8 11 5 7 -13 -3 -13 -4 -21 -2 -18
2 3 12 14 22 26 17 20 17 21 -11 22 -18 0 -29 -5 -29 -14z"/>
<path d="M2446 2763 c-6 -14 -5 -15 5 -6 7 7 10 15 7 18 -3 3 -9 -2 -12 -12z"/>
<path d="M1920 2631 c0 -124 1 -128 24 -140 21 -12 34 -7 136 50 93 52 109 64
93 72 -10 6 -71 41 -135 78 l-118 68 0 -128z"/>
<path d="M1825 2629 c-62 -108 -62 -102 -3 -135 23 -12 31 -12 48 -2 18 12 20
23 20 125 0 62 -1 113 -3 113 -2 0 -29 -45 -62 -101z"/>
<path d="M2581 2716 c-8 -9 -11 -49 -9 -115 l3 -101 80 46 c44 25 91 53 104
61 l23 15 -28 17 c-121 73 -161 91 -173 77z"/>
<path d="M3182 2625 c0 -16 2 -22 5 -12 2 9 2 23 0 30 -3 6 -5 -1 -5 -18z"/>
<path d="M3237 2603 c5 -12 3 -14 -8 -8 -8 4 -11 5 -7 0 4 -4 2 -15 -4 -24 -9
-11 -6 -10 9 2 22 19 41 8 27 -15 -5 -7 -3 -8 6 -3 10 6 12 4 7 -9 -5 -11 -3
-15 5 -10 7 5 9 2 5 -9 -4 -11 -2 -14 8 -11 11 4 7 17 -16 55 -31 50 -44 63
-32 32z"/>
<path d="M2089 2513 c-88 -50 -115 -70 -114 -85 1 -13 34 -38 111 -82 l110
-63 132 76 c73 41 132 78 132 81 0 8 -230 140 -243 140 -7 -1 -64 -30 -128
-67z"/>
<path d="M3211 2533 c4 -23 -2 -32 -18 -26 -12 4 -11 0 4 -11 18 -13 27 -14
43 -6 23 12 27 22 5 14 -9 -4 -15 0 -15 9 0 9 -5 19 -10 22 -6 4 -10 3 -9 -2z"/>
<path d="M1704 2418 c-26 -46 -53 -93 -61 -106 -14 -22 -13 -23 7 -12 11 6 17
16 14 22 -4 7 -3 8 4 4 7 -4 48 12 92 36 96 51 102 73 33 113 l-41 25 -48 -82z"/>
<path d="M3268 2469 c-24 -12 -38 -27 -38 -39 0 -23 44 -55 61 -44 8 5 9 3 4
-6 -6 -10 -4 -12 9 -7 9 4 15 3 12 -1 -7 -12 52 -44 66 -36 6 4 8 3 5 -2 -3
-6 3 -15 14 -22 24 -16 24 -14 -7 42 -14 25 -30 44 -35 41 -5 -4 -6 2 -2 11 5
13 3 15 -7 9 -8 -5 -11 -4 -7 3 7 10 -22 72 -33 71 -3 0 -22 -9 -42 -20z m47
2 c3 -5 2 -12 -3 -15 -5 -3 -9 1 -9 9 0 17 3 19 12 6z m-41 -19 c-11 -10 -23
-24 -27 -32 -4 -11 -6 -9 -6 5 -1 12 9 25 22 31 32 17 35 16 11 -4z"/>
<path d="M3048 2394 c-38 -20 -36 -28 2 -9 17 9 30 18 30 20 0 7 -1 6 -32 -11z"/>
<path d="M1720 2306 c-85 -49 -125 -78 -124 -89 1 -10 -3 -14 -9 -10 -6 4 -8
0 -4 -10 4 -10 2 -16 -6 -14 -7 1 -11 -6 -11 -15 1 -10 -3 -15 -9 -11 -7 4 -8
0 -3 -13 4 -10 4 -15 0 -11 -9 9 -65 -84 -58 -95 11 -17 25 -7 19 13 -5 16 -4
19 6 14 9 -6 11 -4 6 8 -3 9 -2 19 3 22 6 4 10 -9 11 -27 0 -28 2 -30 10 -13
8 17 9 16 4 -6 -6 -35 24 -64 57 -54 23 7 23 7 3 -9 -12 -9 -15 -15 -7 -16 7
0 10 -5 6 -11 -4 -7 16 1 44 16 28 15 49 31 47 36 -3 4 0 11 6 15 8 4 9 3 5
-4 -10 -17 -4 -15 48 14 25 14 44 30 41 35 -4 5 2 6 11 2 13 -5 15 -3 9 7 -5
8 -4 11 3 6 6 -3 22 -1 37 6 l26 11 -3 136 c-3 128 -4 136 -23 138 -11 1 -76
-31 -145 -71z m-65 -323 c-11 -7 -24 -13 -29 -13 -6 1 -1 6 12 13 12 7 19 17
15 22 -4 4 -2 5 6 0 12 -7 11 -10 -4 -22z"/>
<path d="M1933 2373 c-10 -3 -13 -38 -13 -124 0 -65 2 -119 5 -119 3 0 59 31
124 68 l120 68 -103 57 c-102 57 -110 60 -133 50z"/>
<path d="M2570 2261 c0 -94 3 -123 14 -127 11 -4 216 101 216 111 0 2 -35 23
-77 48 -43 25 -95 55 -115 67 l-38 22 0 -121z"/>
<path d="M3055 2350 c-39 -23 -49 -34 -47 -51 3 -16 0 -20 -10 -16 -8 3 -15
-1 -15 -8 0 -8 7 -11 16 -8 11 4 13 3 6 -4 -5 -6 -21 -14 -35 -18 -14 -3 -20
-3 -15 2 11 8 18 33 10 33 -2 0 -9 -9 -15 -20 -9 -17 -2 -24 60 -60 39 -23 75
-38 82 -34 7 4 8 3 4 -4 -6 -9 21 -32 39 -32 3 0 4 55 3 122 -3 142 -5 144
-83 98z m75 -14 c0 -20 -7 -39 -17 -47 -15 -11 -16 -11 -5 1 15 17 16 44 2 35
-6 -4 -9 -2 -8 3 2 6 -1 10 -7 11 -22 2 -41 -10 -58 -36 -10 -16 -16 -20 -13
-10 3 10 0 17 -7 17 -15 0 84 59 101 59 7 1 12 -12 12 -33z m-60 -36 c-20 -13
-33 -13 -25 0 3 6 14 10 23 10 15 0 15 -2 2 -10z m-30 -50 c0 -5 -5 -10 -11
-10 -5 0 -7 5 -4 10 3 6 8 10 11 10 2 0 4 -4 4 -10z m-15 -33 c11 -9 29 -24
40 -32 11 -9 -2 -4 -30 11 -62 34 -71 41 -48 39 10 0 27 -9 38 -18z"/>
<path d="M3105 2350 c3 -5 8 -10 11 -10 2 0 4 5 4 10 0 6 -5 10 -11 10 -5 0
-7 -4 -4 -10z"/>
<path d="M3192 2372 c-9 -7 -12 -42 -10 -142 l3 -133 264 -154 c145 -85 265
-153 266 -151 2 2 -56 105 -128 230 -128 219 -159 260 -189 242 -6 -4 -8 -3
-5 3 3 5 -36 33 -87 61 -103 58 -96 55 -114 44z m53 -22 c17 -11 26 -20 20
-20 -5 1 -19 7 -29 15 -28 21 -36 19 -37 -12 -1 -18 -3 -22 -6 -10 -5 21 3 47
14 47 4 0 22 -9 38 -20z"/>
<path d="M2955 2340 c-3 -6 1 -7 9 -4 18 7 21 14 7 14 -6 0 -13 -4 -16 -10z"/>
<path d="M2921 2276 c-21 -12 -22 -14 -5 -20 10 -4 15 -4 11 0 -4 4 1 13 11
20 22 17 14 17 -17 0z"/>
<path d="M2717 2163 c-99 -55 -118 -69 -115 -87 3 -20 104 -81 451 -269 l87
-48 0 144 0 145 -132 78 c-73 43 -142 83 -153 90 -18 11 -34 5 -138 -53z"/>
<path d="M2091 2149 c-39 -22 -69 -44 -66 -49 4 -6 -1 -7 -11 -3 -12 4 -15 3
-10 -5 5 -8 1 -10 -10 -5 -13 5 -15 3 -9 -7 5 -9 4 -11 -4 -6 -6 4 -23 0 -36
-8 -25 -16 -25 -18 -25 -166 l0 -149 54 31 c30 18 53 35 50 40 -3 4 3 5 12 1
12 -4 15 -3 10 5 -5 8 -1 10 10 5 11 -4 15 -2 11 4 -4 6 1 10 11 9 9 0 16 4
15 11 -2 8 4 10 14 6 11 -4 14 -3 9 5 -5 8 -1 10 10 5 11 -4 15 -2 11 4 -4 6
1 10 11 9 9 0 16 5 14 12 -1 7 9 18 23 24 17 8 24 17 20 27 -4 9 -10 36 -15
61 -9 48 -35 106 -57 129 -8 7 -11 16 -8 19 3 4 11 0 16 -8 9 -12 10 -12 5 3
-5 16 4 21 32 18 16 -2 15 6 -2 12 -7 3 -45 -13 -85 -34z m24 -9 c-3 -5 -11
-10 -16 -10 -6 0 -7 5 -4 10 3 6 11 10 16 10 6 0 7 -4 4 -10z m-40 -20 c-3 -5
-12 -10 -18 -10 -7 0 -6 4 3 10 19 12 23 12 15 0z"/>
<path d="M2170 2146 c0 -9 5 -16 10 -16 6 0 10 4 10 9 0 6 -4 13 -10 16 -5 3
-10 -1 -10 -9z"/>
<path d="M1632 1886 c-139 -79 -255 -146 -257 -148 -2 -1 113 -2 256 0 l259 3
0 144 c0 80 -1 145 -2 145 -2 0 -117 -65 -256 -144z"/>
<path d="M2570 1882 l0 -147 269 0 c149 0 267 3 263 6 -17 15 -511 289 -521
289 -7 0 -11 -48 -11 -148z"/>
<path d="M3180 1878 l0 -143 132 5 133 4 -100 6 -100 6 75 3 c41 2 67 5 58 8
-28 7 -21 23 10 24 15 0 21 3 14 6 -6 2 -10 9 -6 14 3 5 -1 9 -8 9 -8 1 -5 7
7 16 14 11 16 18 8 21 -20 7 -16 33 5 27 9 -3 -1 6 -23 20 -22 14 -46 24 -53
21 -7 -3 -11 -1 -8 4 4 5 -14 21 -38 35 -49 29 -61 32 -50 14 5 -7 3 -8 -5 -4
-7 5 -10 10 -7 14 6 5 -24 31 -36 32 -5 0 -8 -64 -8 -142z m200 14 c-7 -3 -19
3 -28 13 -16 15 -15 16 12 4 15 -7 23 -15 16 -17z"/>
<path d="M2270 1960 c-8 -5 -10 -10 -5 -10 6 0 17 5 25 10 8 5 11 10 5 10 -5
0 -17 -5 -25 -10z"/>
<path d="M2223 1948 c4 -10 3 -18 -1 -18 -5 0 -17 -7 -28 -15 -15 -12 -11 -12
19 2 20 9 34 19 30 22 -5 4 -12 11 -17 16 -6 6 -7 3 -3 -7z"/>
<path d="M1574 1934 c-18 -14 -18 -15 4 -4 12 6 22 13 22 15 0 8 -5 6 -26 -11z"/>
<path d="M2175 1859 c-27 -16 -49 -33 -48 -38 2 -6 -5 -7 -14 -4 -12 5 -14 3
-8 -7 5 -8 4 -11 -3 -7 -13 9 -44 -2 -37 -13 3 -4 -3 -7 -12 -6 -10 0 -18 -5
-18 -13 0 -8 -7 -16 -15 -18 -13 -4 -13 -3 0 6 22 16 -1 13 -30 -4 -22 -13 -6
-14 155 -13 176 2 178 2 60 8 -110 5 -113 6 -38 8 79 2 118 16 71 25 -15 3 -8
5 17 7 l40 2 -45 13 c-25 7 -37 13 -27 14 9 1 17 9 17 19 0 14 -2 15 -10 2 -5
-8 -10 -12 -11 -7 -5 25 -3 33 11 44 27 22 -3 12 -55 -18z m34 -3 c-10 -9 -69
-36 -69 -32 0 7 52 35 64 36 5 0 7 -2 5 -4z"/>
<path d="M1850 1560 c-31 -31 -25 -55 22 -87 49 -33 55 -45 32 -67 -15 -15
-18 -15 -40 -1 -29 19 -34 19 -34 0 0 -35 69 -46 100 -15 36 36 25 65 -44 113
-32 22 -24 49 13 47 42 -3 47 0 27 15 -27 20 -52 19 -76 -5z"/>
<path d="M2040 1475 c0 -87 3 -105 15 -105 12 0 15 14 15 70 0 39 3 70 8 70 4
0 30 -32 57 -70 28 -38 56 -70 63 -70 9 0 12 27 12 100 0 81 -3 100 -15 100
-11 0 -15 -17 -17 -71 l-3 -71 -55 76 c-30 41 -61 76 -67 76 -10 0 -13 -28
-13 -105z"/>
<path d="M2290 1567 c-34 -17 -62 -74 -54 -112 11 -58 91 -105 129 -77 25 18
13 30 -24 25 -32 -4 -41 -1 -55 18 -40 57 1 138 64 126 22 -5 30 -3 30 7 0 27
-49 34 -90 13z"/>
<path d="M2822 1564 c-19 -13 -22 -24 -20 -57 3 -36 8 -44 35 -58 30 -15 31
-18 18 -35 -8 -10 -15 -25 -15 -31 0 -27 21 -11 55 39 43 64 48 118 13 142
-29 20 -58 20 -86 0z m76 -57 c-3 -28 -7 -32 -33 -32 -26 0 -30 4 -33 30 -5
37 21 59 50 44 14 -8 18 -19 16 -42z"/>
<path d="M2982 1564 c-23 -16 -29 -53 -12 -70 7 -7 6 -19 -4 -39 -23 -44 2
-85 54 -85 47 0 80 66 49 97 -8 8 -8 17 0 31 20 37 -10 82 -53 82 -6 0 -22 -7
-34 -16z m62 -27 c8 -12 7 -21 -6 -33 -22 -22 -48 -11 -48 20 0 37 34 45 54
13z m-6 -79 c27 -27 2 -75 -32 -62 -26 10 -15 74 14 74 3 0 11 -5 18 -12z"/>
<path d="M3132 1564 c-25 -17 -30 -54 -8 -54 8 0 18 9 21 20 7 23 37 26 54 6
15 -18 4 -42 -50 -107 -22 -26 -39 -50 -39 -53 0 -13 123 -1 128 12 2 8 -8 12
-32 12 -20 0 -36 3 -36 6 0 3 13 22 29 42 43 55 47 77 17 107 -29 29 -52 31
-84 9z"/>
<path d="M1977 1473 c1 -74 5 -98 15 -98 10 0 14 25 16 98 2 88 1 97 -15 97
-16 0 -18 -10 -16 -97z"/>
<path d="M2407 1473 l2 -98 47 0 c29 0 49 5 52 13 2 8 -8 12 -32 12 -35 0 -36
1 -36 36 0 35 1 36 30 32 20 -3 30 0 30 9 0 8 -12 13 -30 13 -27 0 -30 3 -30
30 0 28 3 30 35 30 19 0 35 5 35 10 0 6 -24 10 -52 10 l-53 0 2 -97z"/>
<path d="M2670 1560 c0 -5 7 -10 15 -10 12 0 15 -17 15 -90 0 -73 3 -90 15
-90 12 0 15 18 15 100 l0 100 -30 0 c-16 0 -30 -4 -30 -10z"/>
<path d="M1200 3866 c0 -19 27 -39 40 -31 8 5 6 13 -6 26 -20 22 -34 25 -34 5z"/>
<path d="M1167 3706 c-6 -15 1 -26 15 -26 4 0 8 9 8 20 0 23 -15 27 -23 6z"/>
<path d="M3716 3843 c-12 -12 -5 -23 14 -23 11 0 20 4 20 9 0 11 -26 22 -34
14z"/>
<path d="M3870 3795 c-19 -23 -1 -39 21 -19 10 9 16 21 13 25 -8 13 -20 11
-34 -6z"/>
<path d="M4120 3500 c-13 -8 -12 -11 5 -24 37 -28 57 -18 31 17 -15 20 -16 20
-36 7z"/>
<path d="M937 3526 c-3 -8 6 -24 19 -37 21 -20 27 -21 34 -9 6 10 3 22 -12 37
-25 27 -34 28 -41 9z"/>
<path d="M910 3457 c0 -19 21 -37 42 -37 25 0 23 16 -4 34 -27 19 -38 20 -38
3z"/>
<path d="M4212 3223 c-10 -4 -10 -8 -1 -19 13 -15 39 -19 39 -5 0 14 -24 29
-38 24z"/>
<path d="M761 3189 c-9 -27 -8 -31 15 -41 20 -10 27 -9 35 3 14 23 11 36 -15
53 -24 15 -25 14 -35 -15z"/>
<path d="M740 3080 c0 -25 4 -30 24 -30 27 0 44 39 23 52 -28 18 -47 9 -47
-22z"/>
<path d="M4370 2101 c0 -12 5 -21 10 -21 6 0 10 6 10 14 0 8 -4 18 -10 21 -5
3 -10 -3 -10 -14z"/>
<path d="M4080 1445 c0 -8 5 -15 10 -15 6 0 10 7 10 15 0 8 -4 15 -10 15 -5 0
-10 -7 -10 -15z"/>
<path d="M1006 1441 c-3 -5 1 -14 9 -21 12 -10 15 -10 15 3 0 19 -16 31 -24
18z"/>
<path d="M966 1412 c-3 -6 5 -17 19 -26 29 -19 33 -7 6 18 -11 10 -22 13 -25
8z"/>
<path d="M1097 1282 c-20 -22 -7 -47 21 -38 34 11 40 56 8 56 -7 0 -20 -8 -29
-18z"/>
<path d="M3795 1189 c-12 -19 5 -23 22 -6 16 16 16 17 1 17 -9 0 -20 -5 -23
-11z"/>
<path d="M3702 1089 c4 -29 33 -48 49 -32 10 10 8 17 -6 33 -24 27 -47 26 -43
-1z"/>
<path d="M3627 986 c-6 -16 2 -28 14 -20 12 7 11 34 0 34 -5 0 -11 -6 -14 -14z"/>
<path d="M1499 939 c-8 -16 -8 -24 0 -32 16 -16 45 3 49 32 5 29 -33 29 -49 0z"/>
<path d="M3371 904 c2 -25 15 -43 27 -35 9 6 8 12 -8 26 -11 10 -20 14 -19 9z"/>
<path d="M3145 780 c-3 -5 1 -10 9 -10 8 0 18 5 21 10 3 6 -1 10 -9 10 -8 0
-18 -4 -21 -10z"/>
<path d="M1870 724 c0 -17 22 -14 28 4 2 7 -3 12 -12 12 -9 0 -16 -7 -16 -16z"/>
<path d="M2132 708 c-7 -7 -12 -23 -12 -36 0 -19 5 -23 23 -20 17 2 22 10 22
32 0 32 -14 43 -33 24z"/>
<path d="M2780 690 c0 -5 9 -10 21 -10 11 0 17 5 14 10 -3 6 -13 10 -21 10 -8
0 -14 -4 -14 -10z"/>
<path d="M2785 640 c3 -5 13 -10 21 -10 8 0 14 5 14 10 0 6 -9 10 -21 10 -11
0 -17 -4 -14 -10z"/>
</g>
</svg>
