<?xml version="1.0" standalone="no"?>
<!DOCTYPE svg PUBLIC "-//W3C//DTD SVG 20010904//EN"
 "http://www.w3.org/TR/2001/REC-SVG-20010904/DTD/svg10.dtd">
<svg version="1.0" xmlns="http://www.w3.org/2000/svg"
 width="512.000000pt" height="512.000000pt" viewBox="0 0 512.000000 512.000000"
 preserveAspectRatio="xMidYMid meet">

<g transform="translate(0.000000,512.000000) scale(0.100000,-0.100000)"
fill="#000000" stroke="none">
<path d="M5035 4992 l-50 -54 -5 -544 -5 -544 63 0 62 0 0 594 c0 327 -3 596
-7 599 -5 2 -30 -21 -58 -51z"/>
<path d="M4968 2552 c10 -7 12 -137 10 -630 l-3 -622 63 0 62 0 0 630 0 630
-72 0 c-41 0 -67 -4 -60 -8z"/>
<path d="M2560 103 l0 -83 630 0 630 0 0 73 0 72 -622 -3 c-493 -2 -623 0
-630 10 -4 7 -8 -24 -8 -69z"/>
<path d="M710 160 c-552 -5 -555 -5 -597 -28 -54 -28 -113 -80 -113 -98 0 -12
98 -14 635 -14 l635 0 0 75 c0 41 -1 74 -2 73 -2 -2 -253 -5 -558 -8z"/>
<path d="M453 3 c153 -2 401 -2 550 0 150 1 25 2 -278 2 -302 0 -425 -1 -272
-2z"/>
<path d="M2872 3 c175 -2 461 -2 635 0 175 1 32 2 -317 2 -349 0 -492 -1 -318
-2z"/>
</g>
</svg>
